<svg xmlns="http://www.w3.org/2000/svg" width="22.001" height="40"><circle fill="#F65448" stroke="#B73730" stroke-width=".957" stroke-miterlimit="10" cx="11" cy="11.001" r="10.522"/><path fill="#F65448" d="M21.522 11.001C21.522 18.266 11 27.474 11 40 11 27.474.478 18.266.478 11.001.478 5.19 5.189.479 11 .479c5.812 0 10.522 4.711 10.522 10.522z"/><path fill="#B73730" d="M10.522 40c0-6.989-3.328-12.532-6.265-17.922C1.973 17.885 0 14.264 0 11.001 0 4.936 4.935 0 11 0s11 4.936 11 11.001c0 3.263-1.974 6.884-4.257 11.077-2.937 5.39-6.265 10.933-6.265 17.922h-.956zM11 .957C5.462.957.956 5.463.956 11.001c0 3.019 1.919 6.541 4.142 10.619C7.411 25.865 9.962 29.984 11 35.235c1.037-5.251 3.59-9.37 5.903-13.615 2.222-4.078 4.142-7.6 4.142-10.619C21.045 5.463 16.538.957 11 .957z"/><circle fill="#5C1410" cx="11" cy="11.001" r="4.009"/></svg>